<svg width="38" height="38" viewBox="0 0 38 38" fill="none" xmlns="http://www.w3.org/2000/svg">
<path d="M18.9988 21.7694C20.8349 21.7694 22.5958 21.04 23.8941 19.7417C25.1924 18.4434 25.9218 16.6825 25.9218 14.8464C25.9218 13.0102 25.1924 11.2493 23.8941 9.951C22.5958 8.65267 20.8349 7.92328 18.9988 7.92328C17.1626 7.92328 15.4017 8.65267 14.1034 9.951C12.8051 11.2493 12.0757 13.0102 12.0757 14.8464C12.0757 16.6825 12.8051 18.4434 14.1034 19.7417C15.4017 21.04 17.1626 21.7694 18.9988 21.7694Z" stroke="black" stroke-width="1.71429" stroke-linecap="round" stroke-linejoin="round"/>
<path d="M7.17444 32.5689C8.41019 30.5405 10.147 28.8641 12.2178 27.7008C14.2886 26.5375 16.6239 25.9265 18.9991 25.9265C21.3742 25.9265 23.7095 26.5375 25.7803 27.7008C27.8512 28.8641 29.5879 30.5405 30.8237 32.5689" stroke="black" stroke-width="1.71429" stroke-linecap="round" stroke-linejoin="round"/>
<path d="M19 37C23.7739 37 28.3523 35.1036 31.7279 31.7279C35.1036 28.3523 37 23.7739 37 19C37 14.2261 35.1036 9.64773 31.7279 6.27208C28.3523 2.89642 23.7739 1 19 1C14.2261 1 9.64773 2.89642 6.27208 6.27208C2.89642 9.64773 1 14.2261 1 19C1 23.7739 2.89642 28.3523 6.27208 31.7279C9.64773 35.1036 14.2261 37 19 37Z" stroke="black" stroke-width="1.71429" stroke-linecap="round" stroke-linejoin="round"/>
</svg>
